<svg xmlns="http://www.w3.org/2000/svg" viewBox="0 0 500 500"><defs><style>.cls-1{isolation:isolate;}.cls-2{fill:#0062cc;}.cls-10,.cls-18,.cls-3,.cls-9{fill:none;stroke-linecap:round;}.cls-3{stroke:#562355;stroke-miterlimit:10;stroke-width:3px;}.cls-4{fill:#c7a2fe;}.cls-5{fill:#fec9b9;}.cls-12,.cls-6{fill:#91c5f0;}.cls-6{opacity:0.79;}.cls-14,.cls-6{mix-blend-mode:multiply;}.cls-7{fill:#98e2f2;}.cls-8{fill:#75aeba;}.cls-10,.cls-9{stroke:#406f80;}.cls-10,.cls-18,.cls-9{stroke-linejoin:round;}.cls-9{stroke-width:2.35px;}.cls-10{stroke-width:1.98px;}.cls-11{fill:#7d68a6;}.cls-13{fill:#cdf5ff;}.cls-15{fill:#999aed;}.cls-16{fill:#4f3f57;}.cls-17{fill:#d7ccfb;}.cls-18{stroke:#fe316d;stroke-width:4.04px;}.cls-19{fill:#4295d5;opacity:0.45;mix-blend-mode:darken;}.cls-20{fill:#feef4a;}.cls-21{fill:#f8c2ab;}.cls-22{fill:#1d71b8;}.cls-23{fill:#185e99;}.cls-24{fill:#e6007e;}.cls-25{fill:#bf0069;}.cls-26{fill:#f8d3c3;}.cls-27{fill:#3f3453;}.cls-28{fill:#f8b99e;}.cls-29{fill:#2ba32b;}.cls-30{fill:#e58c66;}.cls-31{fill:#e58359;}.cls-32{fill:#34c934;}.cls-33{fill:#31bf31;}.cls-34{fill:#32325a;}.cls-35{fill:#282847;}.cls-36{fill:#424278;}.cls-37{fill:#2e2e54;}.cls-38{fill:#706e7c;}.cls-39{fill:#a9a5ba;}.cls-40{fill:#070300;}.cls-41{fill:#3be63b;}.cls-42{fill:#39de39;}.cls-43{fill:#e6950e;}.cls-44{fill:#c7810c;}.cls-45{fill:#020b40;}.cls-46{fill:#f29c06;}.cls-47{fill:#cf8505;}.cls-48{fill:#19609c;}.cls-49{fill:#175991;}.cls-50{fill:#fac8ad;}.cls-51{fill:#fab996;}.cls-52{fill:#392504;}.cls-53{fill:#2b1c03;}.cls-54{fill:#f8c5b0;}.cls-55{fill:#f8b397;}.cls-56{fill:#bf2552;}.cls-57{fill:#f8c4ae;}.cls-58{fill:#f8bda4;}.cls-59{fill:#f08b33;}.cls-60{fill:#d67c2e;}.cls-61{fill:#038a8d;}.cls-62{fill:#037578;}.cls-63{fill:#2c141b;}.cls-64{fill:#392229;}.cls-65{fill:#16568c;}.cls-66{fill:#19619e;}.cls-67{fill:#fff7f3;}</style></defs><g class="cls-1"><g id="BACKGROUND"><rect class="cls-2" width="500" height="500"/></g><g id="OBJECS"><path class="cls-3" d="M272.5,480.5"/><path class="cls-4" d="M195.15-74"/><polygon class="cls-5" points="398.7 59.65 398.65 59.65 398.66 59.64 398.7 59.65"/><path class="cls-6" d="M56.57,392c61.71.19-1.23,1.76,22.25,7.58s301.35,10.85,275.14.66c-23.19-9,31.26-7.36,77.28-8.22,46.2-.88,66.26-13.15,53-15.44-11-5.79-410.35-3.25-439,1.44C17,380.41,28.71,392.46,56.57,392Z"/><path class="cls-7" d="M383.92,145.63c12.32-19.39,6.88-34.25-16.32-34.57-13.67-.24-27.82,6-27.82,6C354.91,123.9,370.47,163.29,383.92,145.63Z"/><path class="cls-8" d="M367.6,111.06c-13.67-.24-27.82,6-27.82,6a16.79,16.79,0,0,1,1.67.88c5.38-1.77,13.81-4,22.07-3.83,23.2.31,28.64,15.17,16.32,34.56-.28.37-.56.71-.85,1a11.48,11.48,0,0,0,4.93-4C396.24,126.24,390.8,111.38,367.6,111.06Z"/><path class="cls-7" d="M402.05,125.07c-11.54,8.66-10.26,19.9-4.89,25.34s21,6.17,28-2,7.93-19.73,15.86-25C422,118.47,410.43,119.9,402.05,125.07Z"/><path class="cls-8" d="M426.19,144c-7,8.17-22.59,7.43-28,2a14.3,14.3,0,0,1-3.91-11.34,14.71,14.71,0,0,0,2.84,15.78c5.37,5.43,21,6.17,28-2s7.93-19.73,15.86-25c-1-.25-1.92-.48-2.86-.7C433.53,128.62,431.81,137.39,426.19,144Z"/><path class="cls-9" d="M375.27,197.16c1-29,22.64-53.53,42-62.67"/><path class="cls-9" d="M388.48,159.62a34.73,34.73,0,0,0-29.09-38.79"/><path class="cls-7" d="M403.43,155c-12.74,2.45-11.56,14.8-4.51,20.68s22.45,2.36,27.65,9.61C427,166,418,152.24,403.43,155Z"/><path class="cls-8" d="M400.34,171.64c-3.54-2.95-5.6-7.54-5.16-11.68-3.11,4.83-1,11.78,3.74,15.76,7.06,5.88,22.45,2.36,27.65,9.61a56.89,56.89,0,0,0-.18-5.75C420.15,174.55,406.78,177,400.34,171.64Z"/><path class="cls-9" d="M385.33,164.48c9.66-3.4,27.78-2.61,31.44,8.37"/><path class="cls-7" d="M143.32,159.49c-3.41-15.54.22-23.58,15-25.79s28.44,6.38,28.44,6.38c-11.43,1.86-19.4,25.07-31.64,25A15.93,15.93,0,0,1,143.32,159.49Z"/><path class="cls-8" d="M181.37,137.37c-9.26,5.79-16.68,23.34-27.32,23.31a15.82,15.82,0,0,1-11.48-5.26c.19,1.29.44,2.65.75,4.07a15.93,15.93,0,0,0,11.79,5.62c12.24,0,20.21-23.17,31.64-25A44.52,44.52,0,0,0,181.37,137.37Z"/><path class="cls-7" d="M129.63,131.75c-15.62-6.2-10.33-21-5.71-25.63a46,46,0,0,1,26-12.23c-4.05,14.88-1.49,32.35-9.5,36.4A17.9,17.9,0,0,1,129.63,131.75Z"/><path class="cls-8" d="M145.73,94.56c-3.09,14.2-1.3,29.8-8.82,33.6a17.9,17.9,0,0,1-10.83,1.46c-.51-.21-1-.42-1.46-.64a21,21,0,0,0,5,2.77,17.9,17.9,0,0,0,10.83-1.46c8-4,5.45-21.52,9.5-36.4A36.55,36.55,0,0,0,145.73,94.56Z"/><path class="cls-7" d="M119.25,149.57c7.09-20-19.79-34.27-59-24C82.59,135.3,111.3,172,119.25,149.57Z"/><path class="cls-8" d="M88.68,122.24c20,2.31,31,13.29,26.13,27-1.59,4.49-4,6.61-7,7,5.12,1.34,9.17-.19,11.48-6.69C124.44,134.9,111.41,123.35,88.68,122.24Z"/><path class="cls-10" d="M156,215.15c-21.16-70.76-64.15-84.31-64.15-84.31"/><path class="cls-7" d="M118.3,161.39c-22.48-12.7-44,3-44,23.84,0,19.7,6.61,22.48,6.61,22.48C89.54,188.7,133.18,179.61,118.3,161.39Z"/><path class="cls-8" d="M118.3,161.39c-12.23-6.91-24.16-5.4-32.5.76,7.88-3.76,17.87-3.86,28.07,1.9,13.72,16.8-22.34,25.84-34.77,42.06a5.65,5.65,0,0,0,1.84,1.6C89.54,188.7,133.18,179.61,118.3,161.39Z"/><path class="cls-10" d="M134.76,112.87c-8,14.38-4.28,45.35-.81,54.42"/><path class="cls-10" d="M131.29,163.62s-26.76-10.19-39.44,13"/><path class="cls-10" d="M138.68,174.82c3.76-16,11-30.29,35.76-34.74"/><path class="cls-11" d="M337.76,201.85a4.63,4.63,0,0,1-1.84-.38,4.69,4.69,0,0,1-2.49-6.16,21.05,21.05,0,0,0-19.38-29.22,20.74,20.74,0,0,0-13.15,4.63,4.71,4.71,0,0,1-5.9-7.34A30.44,30.44,0,0,1,342.09,199,4.71,4.71,0,0,1,337.76,201.85Z"/><path class="cls-11" d="M264.33,201.85a4.58,4.58,0,0,1-1.83-.38,4.7,4.7,0,0,1-2.5-6.16,20.84,20.84,0,0,0,1.65-8.19,21.05,21.05,0,0,0-21-21,20.75,20.75,0,0,0-13.16,4.63,4.71,4.71,0,0,1-5.9-7.34,30.44,30.44,0,0,1,49.49,23.74A30.19,30.19,0,0,1,268.67,199,4.72,4.72,0,0,1,264.33,201.85Z"/><path class="cls-11" d="M193,201.85a4.55,4.55,0,0,1-1.83-.38,4.69,4.69,0,0,1-2.5-6.16,21.05,21.05,0,0,0-19.38-29.22,20.79,20.79,0,0,0-13.16,4.63,4.71,4.71,0,0,1-5.89-7.34A30.44,30.44,0,0,1,197.29,199,4.71,4.71,0,0,1,193,201.85Z"/><path class="cls-12" d="M409.17,380.85l-38.6-.69-262.14-4.7a8.55,8.55,0,0,1-8.39-9l6.75-130.62,1.52-29.44a21,21,0,0,1,5.84-13.49c.21-.22.43-.43.65-.64a21,21,0,0,1,14.54-5.84H373.15a24.11,24.11,0,0,1,23.93,21.1l3.59,28.31,17.14,135.38A8.56,8.56,0,0,1,409.17,380.85Z"/><path class="cls-13" d="M394.19,235.81,409.58,372a10.39,10.39,0,0,1-10.33,11.59H340.88L386,235.85Z"/><path class="cls-7" d="M386.38,235.85l4.47,140.42a11.7,11.7,0,0,1-11.7,12.24H322.66l52.8-152.66Z"/><path class="cls-13" d="M381.91,204.15l-2.05,31.7-9.29,144.31,0,.38a13.7,13.7,0,0,1-13.78,12.83L108,391.25a13.71,13.71,0,0,1-13.54-14.77l11-140.63,2.28-29.09a22,22,0,0,1,6.4-13.84c.21-.22.43-.43.65-.64a22,22,0,0,1,15-5.84H365.3A16.65,16.65,0,0,1,381.91,204.15Z"/><g class="cls-14"><path class="cls-15" d="M400.67,235.85H105.47l2.28-29.09a22,22,0,0,1,6.4-13.84c.21-.22.43-.43.65-.64a21,21,0,0,1,14.54-5.84H373.15a24.11,24.11,0,0,1,23.93,21.1Z"/></g><path class="cls-11" d="M130.61,386.84h-.09a1.12,1.12,0,0,1-1-1.21l11.68-144.68a1.12,1.12,0,0,1,2.24.18L131.74,385.8A1.13,1.13,0,0,1,130.61,386.84Z"/><path class="cls-11" d="M163.41,387.11h-.09a1.12,1.12,0,0,1-1-1.21l11.69-145a1.12,1.12,0,1,1,2.24.18l-11.69,145A1.12,1.12,0,0,1,163.41,387.11Z"/><path class="cls-11" d="M196.19,387.4h-.09a1.12,1.12,0,0,1-1-1.21l11.72-145.24a1.13,1.13,0,0,1,2.25.18L197.31,386.36A1.13,1.13,0,0,1,196.19,387.4Z"/><path class="cls-11" d="M229,387.67h-.09a1.12,1.12,0,0,1-1-1.21L239.6,240.94a1.13,1.13,0,0,1,2.25.18L230.11,386.64A1.12,1.12,0,0,1,229,387.67Z"/><path class="cls-11" d="M261.77,388h-.09a1.13,1.13,0,0,1-1-1.22l11.77-145.79a1.13,1.13,0,0,1,2.25.18L262.89,386.91A1.12,1.12,0,0,1,261.77,388Z"/><path class="cls-11" d="M294.57,388.23h-.1a1.12,1.12,0,0,1-1-1.21l11.79-146.08a1.13,1.13,0,0,1,2.25.18L295.69,387.2A1.12,1.12,0,0,1,294.57,388.23Z"/><path class="cls-11" d="M327.35,388.51h-.09a1.13,1.13,0,0,1-1-1.22l11.82-146.35a1.12,1.12,0,0,1,2.24.18L328.48,387.47A1.13,1.13,0,0,1,327.35,388.51Z"/><path class="cls-11" d="M367.92,265.07H113.34a1.13,1.13,0,1,1,0-2.25H367.92a1.13,1.13,0,0,1,0,2.25Z"/><path class="cls-11" d="M366.32,289.85H111.4a1.13,1.13,0,1,1,0-2.25H366.32a1.13,1.13,0,0,1,0,2.25Z"/><path class="cls-11" d="M364.68,315.26H109.4a1.13,1.13,0,0,1,0-2.25H364.68a1.13,1.13,0,1,1,0,2.25Z"/><path class="cls-11" d="M363.17,338.72H107.56a1.13,1.13,0,0,1,0-2.26H363.17a1.13,1.13,0,0,1,0,2.26Z"/><path class="cls-11" d="M361.51,364.57h-256a1.13,1.13,0,1,1,0-2.25h256a1.13,1.13,0,0,1,0,2.25Z"/><circle class="cls-16" cx="243.82" cy="212.72" r="7.87"/><circle class="cls-16" cx="317.65" cy="212.72" r="7.87"/><path class="cls-11" d="M314.05,217.55A30.44,30.44,0,0,1,295,163.38a4.71,4.71,0,1,1,5.9,7.34A21,21,0,0,0,316.14,208a4.71,4.71,0,0,1,.92,9.37C316.07,217.5,315.06,217.55,314.05,217.55Z"/><path class="cls-17" d="M293.35,169.48a1.54,1.54,0,0,1-1.06-.41,1.58,1.58,0,0,1-.1-2.22,28,28,0,0,1,18.21-9.51,1.57,1.57,0,1,1,.4,3.11A25,25,0,0,0,294.51,169,1.57,1.57,0,0,1,293.35,169.48Z"/><path class="cls-17" d="M321.05,161.11a1.52,1.52,0,0,1-.42-.06,39.58,39.58,0,0,0-4.63-.78,1.57,1.57,0,1,1,.36-3.12,43.77,43.77,0,0,1,5.11.88,1.57,1.57,0,0,1-.42,3.08Z"/><path class="cls-11" d="M240.63,217.55a30.44,30.44,0,0,1-19.06-54.17,4.71,4.71,0,1,1,5.9,7.34,21,21,0,0,0,13.16,37.42,20.41,20.41,0,0,0,2.08-.1,4.71,4.71,0,1,1,.93,9.37C242.65,217.5,241.63,217.55,240.63,217.55Z"/><path class="cls-17" d="M221,169.48a1.53,1.53,0,0,1-1.05-.41,1.57,1.57,0,0,1-.1-2.22,28,28,0,0,1,18.21-9.51,1.57,1.57,0,0,1,.4,3.11,25.08,25.08,0,0,0-16.3,8.52A1.56,1.56,0,0,1,221,169.48Z"/><path class="cls-17" d="M248.71,161.11a1.59,1.59,0,0,1-.43-.06,39.44,39.44,0,0,0-4.62-.78,1.57,1.57,0,0,1,.35-3.12,43.82,43.82,0,0,1,5.12.88,1.57,1.57,0,0,1-.42,3.08Z"/><circle class="cls-16" cx="172.59" cy="212.72" r="7.87"/><path class="cls-11" d="M169.25,217.55a30.44,30.44,0,0,1-19.05-54.17,4.71,4.71,0,0,1,5.89,7.34,21,21,0,0,0,13.16,37.42,20.74,20.74,0,0,0,2.09-.1,4.71,4.71,0,0,1,.92,9.37C171.27,217.5,170.26,217.55,169.25,217.55Z"/><path class="cls-17" d="M148.43,169.48a1.54,1.54,0,0,1-1.06-.41,1.58,1.58,0,0,1-.1-2.22,28,28,0,0,1,18.21-9.51,1.57,1.57,0,1,1,.4,3.11A25,25,0,0,0,149.59,169,1.56,1.56,0,0,1,148.43,169.48Z"/><path class="cls-17" d="M176.13,161.11a1.52,1.52,0,0,1-.42-.06,39.58,39.58,0,0,0-4.63-.78,1.57,1.57,0,1,1,.36-3.12,43.82,43.82,0,0,1,5.12.88,1.57,1.57,0,0,1-.43,3.08Z"/><ellipse class="cls-18" cx="152.03" cy="323.51" rx="12.59" ry="11.69"/><ellipse class="cls-18" cx="315.66" cy="325.9" rx="12.59" ry="11.69"/><ellipse class="cls-18" cx="188.82" cy="276.64" rx="12.59" ry="11.69"/><polyline class="cls-18" points="238.16 348.75 244.61 360.27 262.93 339.16"/><polyline class="cls-18" points="169.25 375.56 175.7 387.08 194.02 365.98"/><polyline class="cls-18" points="207.19 299.49 213.63 311.01 231.96 289.9"/><ellipse class="cls-18" cx="321.05" cy="276.64" rx="12.59" ry="11.69"/><path class="cls-19" d="M303.6,264.68c2.28,5.56,1.65,22.22-4.19,27.49a1.91,1.91,0,0,1-1.3.5l-31.68-.37a1,1,0,0,1-.65-1.63c6.28-6.35,9.54-16.66,9.73-26Z"/><path class="cls-20" d="M272.71,265.81c-.62,6.38-3.55,12.77-9,19.16a2.07,2.07,0,0,0,1.53,3.42l27.31.32a2.05,2.05,0,0,0,1.49-.59c5.05-5.09,8.33-12.4,10-21.74a2.08,2.08,0,0,0-2-2.44H274.76A2.06,2.06,0,0,0,272.71,265.81Z"/><path class="cls-19" d="M232.29,314.71c2.28,5.56,1.65,22.22-4.19,27.49a1.87,1.87,0,0,1-1.3.5l-31.68-.36a1,1,0,0,1-.65-1.64c6.28-6.35,9.54-16.66,9.73-26Z"/><path class="cls-20" d="M201.4,315.84c-.62,6.38-3.55,12.77-9,19.17a2.06,2.06,0,0,0,1.53,3.41l27.32.32a2,2,0,0,0,1.48-.59c5.05-5.09,8.33-12.4,10-21.74a2.08,2.08,0,0,0-2-2.44H203.45A2.06,2.06,0,0,0,201.4,315.84Z"/><path class="cls-19" d="M327.05,364.2c2.28,5.56,1.65,22.22-4.19,27.49a1.87,1.87,0,0,1-1.29.5l-31.69-.36a1,1,0,0,1-.65-1.64c6.28-6.35,9.54-16.66,9.73-26Z"/><path class="cls-20" d="M296.16,365.33c-.62,6.38-3.55,12.77-9,19.17a2.06,2.06,0,0,0,1.53,3.41l27.32.32a2,2,0,0,0,1.48-.59c5.05-5.09,8.34-12.4,10-21.74a2.08,2.08,0,0,0-2-2.44H298.21A2.06,2.06,0,0,0,296.16,365.33Z"/><path class="cls-19" d="M166.57,338.33c2.28,5.56,1.65,22.22-4.19,27.49a2,2,0,0,1-1.3.5L129.4,366a1,1,0,0,1-.65-1.64c6.28-6.34,9.54-16.65,9.73-26Z"/><path class="cls-20" d="M135.68,339.46c-.62,6.38-3.55,12.77-9,19.16a2.07,2.07,0,0,0,1.54,3.42l27.31.32a2.05,2.05,0,0,0,1.49-.59c5.05-5.09,8.33-12.4,10-21.74a2.07,2.07,0,0,0-2-2.44H137.72A2.05,2.05,0,0,0,135.68,339.46Z"/><path class="cls-21" d="M73.26,326.15c-1.56,0-.74-2.06-1.54-3.51l3-.39a7,7,0,0,1,.28,3.36C74.86,326.39,73.26,326.15,73.26,326.15Z"/><path class="cls-22" d="M68.17,346.45c-.58,6.12,1.13,7.5,5.75,7.85s6-4,6.08-7.66A34.76,34.76,0,0,1,68.17,346.45Z"/><path class="cls-22" d="M80,347a130.47,130.47,0,0,1,1.78,18.67,67.93,67.93,0,0,1-.36,10.48,95.63,95.63,0,0,1-1.76,10.22l-3.29-.61a90.43,90.43,0,0,0,.94-9.91,64.32,64.32,0,0,0-.42-9.81,142.26,142.26,0,0,0-3.78-18.87Z"/><path class="cls-23" d="M81.76,365.71A130.47,130.47,0,0,0,80,347l-6.89.17,0,.1,6.06-.14A130.33,130.33,0,0,1,81,365.83a69.16,69.16,0,0,1-.36,10.48,93.27,93.27,0,0,1-1.71,10l.76.14a95.63,95.63,0,0,0,1.76-10.22A67.93,67.93,0,0,0,81.76,365.71Z"/><path class="cls-22" d="M73.87,347a70,70,0,0,1,.07,19.44c-.42,3.34-1,6.65-1.74,9.93a84.79,84.79,0,0,1-2.74,9.74l-3.75-1.25a81.33,81.33,0,0,0,2-9.36c.5-3.17.85-6.36,1.06-9.55.4-6.38.61-12.86-.63-18.9Z"/><path class="cls-23" d="M73.87,347h-.64a69.85,69.85,0,0,1,0,19.05c-.42,3.35-1,6.66-1.74,9.93a82.28,82.28,0,0,1-2.74,9.74l-3-1,0,.13,3.75,1.25a84.79,84.79,0,0,0,2.74-9.74c.73-3.28,1.32-6.59,1.74-9.93A70,70,0,0,0,73.87,347Z"/><path class="cls-16" d="M79.6,386.22c5.26,2.83,5,2.94,4.86,3.64-.26,1.16-6.32.49-8.52.37s.55-4.7.55-4.7Z"/><path class="cls-16" d="M65.83,384.7c-1.3,3-1.67,4.47-1,5s6.46.65,7.37.47,2.86-1,.81-2.13-3.79-2.15-3.79-2.15Z"/><path class="cls-24" d="M87.26,335.85a32.39,32.39,0,0,0-5.71-14l-2.39.74a31.74,31.74,0,0,1,3.36,7.9L79.1,327c-2-3.32-8.9-2.41-10.85-.15a27.7,27.7,0,0,0-8.76,7h0l-.09.11h0a1.74,1.74,0,0,0,.26,2.44l8.74,7.07c-.09,1.33-.2,2.48-.26,3.6,1.08,1.84,10.08,3.2,11.87-.45,0-2.89-.16-9.32-.29-13.75l4.4,4.5,0,.05a1.83,1.83,0,0,0,3.1-1.59ZM63.43,335a24.35,24.35,0,0,1,4.65-3.85,78.91,78.91,0,0,1,.44,9.07Z"/><path class="cls-25" d="M68.14,330.28a24.73,24.73,0,0,0-4.65,3.85l.4.42a23.75,23.75,0,0,1,4.19-3.39c.33,3.38.45,6,.45,8.14l.06.06A79.48,79.48,0,0,0,68.14,330.28Z"/><path class="cls-25" d="M82.59,329.61a32.34,32.34,0,0,0-3-7.18l-.47.15a31.36,31.36,0,0,1,2.93,6.52Z"/><path class="cls-25" d="M68.2,346.21c0-.23,0-.47,0-.71,0,.55-.08,1.07-.11,1.59,1.08,1.84,10.08,3.2,11.87-.45v-.78C78.09,349.38,69.26,348,68.2,346.21Z"/><path class="cls-25" d="M68.45,342.62l-8.74-7.07a1.74,1.74,0,0,1-.6-1,1.73,1.73,0,0,0,.54,1.91l8.74,7.07Q68.42,343.07,68.45,342.62Z"/><path class="cls-25" d="M87.25,335.83a1.81,1.81,0,0,1-3,.73l0-.05L79.78,332c0,.31,0,.63,0,1l4.31,4.41,0,.05a1.83,1.83,0,0,0,3.1-1.59Z"/><path class="cls-26" d="M77.51,319.31a2,2,0,0,1-.71.75c0,.65.08,1.23.1,1.68.09,1.56-3.16,2.44-5,1.37,0,0-3.53-3.64-2.55-7.3a3.34,3.34,0,0,1,5.83-.92,7.49,7.49,0,0,1,1,2.19C76.68,318,77.65,318.88,77.51,319.31Z"/><path class="cls-21" d="M76.25,317.08a7.49,7.49,0,0,0-1-2.19,3.33,3.33,0,0,0-3.56-1.22A3.29,3.29,0,0,1,74.56,315a7.62,7.62,0,0,1,1,2.19c.43.87,1.39,1.8,1.25,2.22a1.93,1.93,0,0,1-.7.75c0,.65.07,1.23.1,1.68,0,.83-.85,1.46-2,1.72,1.41-.13,2.68-.84,2.62-1.82,0-.45-.05-1-.1-1.68a2,2,0,0,0,.71-.75C77.65,318.88,76.68,318,76.25,317.08Z"/><path class="cls-24" d="M81.13,342.66"/><path class="cls-27" d="M76.53,314.42c-2.55,1-3.55,1.59-3.48,3.79s1.28,4.1-.88,5-4.37-3.68-4.44-5.62A5.07,5.07,0,0,1,71,312.73c2.19-.76,4.85-.61,4.85-.29l-2,.86A2.73,2.73,0,0,1,76.53,314.42Z"/><path class="cls-27" d="M75.19,314.89c.48,1.46-.11,2.67,0,3.49s.15.88-.1.93-1.15-1.56-1.74-2C72.35,316.66,74.82,314.52,75.19,314.89Z"/><path class="cls-28" d="M74.26,317.51a.89.89,0,1,0-1.77.24c.22.93,1,2.47,1.51,2.43s.67-.49.65-.93A13.37,13.37,0,0,0,74.26,317.51Z"/><path class="cls-26" d="M81.32,321.3a3,3,0,0,0-3-1.7c-1-.08-1.62.39-1.51,1s1.84,0,1.91,1,.2.65.5,1.16,2.38-.07,2.3-.88Z"/><path class="cls-21" d="M79.64,322.56c-.29-.52-.43-.24-.5-1.17s-1.79-.36-1.9-1a.73.73,0,0,1,.38-.77c-.54.14-.85.5-.78.93.11.6,1.84,0,1.91,1s.2.65.5,1.16c.18.32,1.06.22,1.68-.11C80.38,322.8,79.79,322.81,79.64,322.56Z"/><path class="cls-29" d="M354.57,161.91c-3.43,3.55.36,9.26-2.05,11.33-2.28,1.64-5.33-6.08-5.33-6.08a4.69,4.69,0,0,1-2.89.82s3.44,9.14,7.75,9.23,6.13-4.61,6.37-6.34C359.35,164.16,355.2,161.34,354.57,161.91Z"/><path class="cls-30" d="M347.19,167.16c-.24-3.59-1.34-4.94-2.56-4.75a.49.49,0,0,0-.3.77c1.31,1.8-.52,2.57,0,4.8A2.59,2.59,0,0,0,347.19,167.16Z"/><path class="cls-31" d="M344.72,162.41c.87.42,1.57,1.85,1.76,4.63a2.3,2.3,0,0,1-2.18.91v0a2.59,2.59,0,0,0,2.89-.82C347,163.66,345.9,162.3,344.72,162.41Z"/><path d="M359.39,205.73c-1.52,3.46-4.31,4.29-4.09,5.52s2.55.21,5-.62c1.72-.58,2.86-.85,3.38-1,1-.48-1.12-3.92-1.12-3.92Z"/><path d="M348,206.17c-1.62,3.54-4.24,3.73-3.43,5.46.48,1,2.56-.16,4.82-1.32,1.62-.82,3.05-1.39,3.55-1.6.94-.62-2-3.58-2-3.58Z"/><path class="cls-32" d="M356.43,181.32c5.46,1.06,14.36,1.8,14.43-3s2.52-8.53-2-16c-3.43-5.69-15.3-2.75-15.53,2s4.24,6,3.43,10C355.87,178.83,355.47,181.13,356.43,181.32Z"/><path class="cls-33" d="M358.1,181.16c-1-.18-.56-2.48.36-7,.81-4-3.65-5.32-3.43-10,.12-2.47,3.35-4.45,6.91-5-4.16.1-8.44,2.3-8.58,5.15-.22,4.69,4.24,6,3.43,10-.92,4.47-1.32,6.77-.36,7a32.67,32.67,0,0,0,9.87.61A36.89,36.89,0,0,1,358.1,181.16Z"/><path class="cls-34" d="M349.37,180.8c-3.33.62-2.89,3-2.56,5s.88,17.78,1.09,20.69l3.22-1.17s2.75-11.38,1.94-14.52c-.67-2.64-1.47-2.71-1.6-3.73s1.59-1,3-1.1,3.13-.25,2.88-1.69-1.21-4.43-1.21-4.43S352.79,180.16,349.37,180.8Z"/><path class="cls-35" d="M357.3,184.24c-.26-1.43-1.21-4.43-1.21-4.43l-1,.12c.3,1,.73,2.51.89,3.4.26,1.44-1.41,1.62-2.88,1.69s-3.08.09-3,1.1.93,1.09,1.61,3.73c.8,3.14-1.95,14.52-1.95,14.52l-1.93.7c0,.59.06,1.07.08,1.38l3.22-1.17s2.75-11.38,1.94-14.52c-.67-2.64-1.47-2.71-1.6-3.73s1.59-1,3-1.1S357.55,185.68,357.3,184.24Z"/><path class="cls-34" d="M356,178.66c-.2,1.69-1.19,1.53-1.42,1.64,0,0-2,5.58-.15,5.63,2.9.09,9.39-.29,11.11-.39,3.27-.19.94-6.79.94-6.79A37.65,37.65,0,0,1,356,178.66Z"/><path class="cls-36" d="M370.86,178.32c-1.23.14-3.06.28-4.39.43l-6.1,1.75c-5.43,1.85-2.86,6.49-1.67,14.94s.59,10.39.59,10.39h3.29s3.62-12.4,1.1-17.07c-1.06-1.95.16-2.37,1.11-2.43,1.24.06,3.25.19,4.45-.38S371.15,182.81,370.86,178.32Z"/><path class="cls-37" d="M370.86,178.32l-1,.1c.08,3.67-.59,5.81-1.67,6.32s-3.21.43-4.45.38c-1,.06-2.17.47-1.11,2.43,2.52,4.67-1.1,17.07-1.1,17.07h-2.1a6.27,6.27,0,0,1-.13,1.21h3.29s3.62-12.4,1.1-17.07c-1.06-1.95.16-2.37,1.11-2.43,1.24.06,3.25.19,4.45-.38S371.15,182.81,370.86,178.32Z"/><path class="cls-38" d="M366.81,181.26H355.3v-1.5h10.9a.71.71,0,0,1,.66.46l.24.67C367.16,181.11,367.1,181.26,366.81,181.26Z"/><path class="cls-39" d="M355.32,181.27H342.17a1.08,1.08,0,0,1-1-.82l-2.3-9.25a1.07,1.07,0,0,1,1-1.33h13.58a1.07,1.07,0,0,1,1.05.86l1.87,9.25A1.08,1.08,0,0,1,355.32,181.27Z"/><path class="cls-38" d="M355.29,181.27H340l-2.51-10.08a1.07,1.07,0,0,1,1-1.32h13.59a1.06,1.06,0,0,1,1.05.85Z"/><path class="cls-31" d="M357.6,161.11l-1-2.6a1.12,1.12,0,0,1,.72-1.46l1.66-.52a1.11,1.11,0,0,1,1.4.7l.88,2.49C361.54,161,358.34,162.11,357.6,161.11Z"/><path class="cls-40" d="M352.67,152.14c-.1,1.2-.12,3.1.65,3.6v-3.8Z"/><path class="cls-30" d="M355.07,159.26c1.42,1.23,4.83.13,5.55-.67a7.13,7.13,0,0,0,1-7.32c-1.47-3.81-4.85-3.6-6.85-2.82s-2.17,4.65-1.43,7.62A6.78,6.78,0,0,0,355.07,159.26Z"/><path class="cls-31" d="M355.9,158.77a6.78,6.78,0,0,1-1.78-3.18c-.64-2.61-.6-5.9.77-7.2l-.16.06c-2,.79-2.17,4.65-1.43,7.62a6.78,6.78,0,0,0,1.77,3.19c1.35,1.17,4.47.24,5.41-.54C359.15,159.31,357,159.7,355.9,158.77Z"/><path class="cls-40" d="M353.07,148.73a3.5,3.5,0,0,0-1.83,3.31,2.62,2.62,0,0,0,1.66-.47,3.29,3.29,0,0,0-.46.94,22.4,22.4,0,0,0,5.91-1.32,3.06,3.06,0,0,0,2.38,2.54c1.3.21.82,3.36.82,3.36,1.91-1.12,1.28-4.18.83-6a4.77,4.77,0,0,0-3.64-3.37C357,147.2,354.53,147.9,353.07,148.73Z"/><path class="cls-31" d="M360.17,153.57a3.88,3.88,0,0,1,.17-.74c.23-.68.57-.87,1-.41s.59,2.43-.13,2.64S360.05,154.31,360.17,153.57Z"/><path class="cls-41" d="M365.53,159.65A16.43,16.43,0,0,1,376,170.49c1.87,5.55-9.73,4.32-13.27,3.26l.89-2.54c9.72,1.35,8.41-1,8.41-1-2.54-3.47-7.78-5.83-9.13-6.34a2,2,0,0,1-.57-3.28A3.37,3.37,0,0,1,365.53,159.65Z"/><path class="cls-42" d="M363.59,171.21l-.29.82c4.5.49,6.05,0,6.56-.45A29.64,29.64,0,0,1,363.59,171.21Z"/><path class="cls-42" d="M376,170.49a16.43,16.43,0,0,0-10.44-10.84,3.64,3.64,0,0,0-2.78.53,3.91,3.91,0,0,1,.81.08A16.39,16.39,0,0,1,374,171.1a2.47,2.47,0,0,1-1.35,3.34C375.09,174,376.77,172.87,376,170.49Z"/><path class="cls-30" d="M362.7,173.75c-2.13.11-.91-1.77-5.12-2.53-1.27-.23,2.63-2.06,6,0A1.81,1.81,0,0,1,362.7,173.75Z"/><path class="cls-31" d="M363,173c-2.09.11-1-1.7-4.9-2.48-.72.25-1,.57-.51.66,4.21.76,3,2.64,5.12,2.53a1.74,1.74,0,0,0,1.06-1.34A2.08,2.08,0,0,1,363,173Z"/><path class="cls-43" d="M201.09,393.29c-3.55-.87-3.54-1.55-3.54-1.55,7.48-11.94,6.32-26.78.73-42.55l8.48-1.83C210.32,363.64,210.12,380.42,201.09,393.29Z"/><path class="cls-44" d="M198.37,391.55c7.47-11.93,6.31-26.77.73-42.54l-.82.18c5.59,15.77,6.75,30.61-.73,42.55,0,0,0,.68,3.54,1.55.07-.11.14-.23.22-.34C198.36,392.15,198.37,391.55,198.37,391.55Z"/><path class="cls-45" d="M197.55,391.74a5.54,5.54,0,0,0-1.19,1.78,1.21,1.21,0,0,0,.47,1.39,9.09,9.09,0,0,1,2.72,2.93c.59,1.45,4.07,1,4.5.77,1.26-.7-1.45-.75-2.05-2.17a19.93,19.93,0,0,1-1-3.46Z"/><path class="cls-46" d="M206.74,347.18c-2.1,1.06-7.79.49-9.28,0,0,0-2.15,5.32-1.43,7a4.5,4.5,0,0,0,1.44,2.14s-1.75,27-17.69,23.69l-1.13,3.16c12.95,2.84,23.26-6.38,26.1-25.36C207.45,354.52,207.43,350.88,206.74,347.18Z"/><path class="cls-47" d="M180.66,380.36c15.93,3.3,17.69-23.68,17.69-23.68a4.63,4.63,0,0,1-1.45-2.15c-.71-1.72,1.43-7,1.43-7a21.32,21.32,0,0,0,8.52.28c0-.2-.07-.39-.11-.59-2.1,1.06-7.79.49-9.28,0,0,0-2.15,5.32-1.43,7a4.5,4.5,0,0,0,1.44,2.14s-1.75,27-17.69,23.69l-1.13,3.16.92.17Z"/><path class="cls-48" d="M219.73,314l-.69.08a25.25,25.25,0,0,1,0,6.67,23.59,23.59,0,0,1-2,7,15,15,0,0,1-4.9,5.95,11.63,11.63,0,0,1-7.09,2l-.05.39a11.82,11.82,0,0,0,7.89-1.92,15,15,0,0,0,4.9-5.94,23.56,23.56,0,0,0,2-7A25,25,0,0,0,219.73,314Z"/><path class="cls-22" d="M219.73,314l-2.39.28a22.28,22.28,0,0,1-.46,6.41,20.42,20.42,0,0,1-2.21,5.9,11.21,11.21,0,0,1-4,4.21,7.39,7.39,0,0,1-4.84.88.92.92,0,0,0-.26-.16s-5.79-.86-7.54.13a33.06,33.06,0,0,0-11.65,4.16,27,27,0,0,0-5.24,4,20,20,0,0,0-4,5.41l2.74,1.39a20,20,0,0,1,8.29-7.52,29,29,0,0,1,9-2.9c.07,4,.58,9.58.11,11.32,2.16,1.57,7.85,1.39,9.35-.1,0-2.33.38-7.49.18-11.32a11.44,11.44,0,0,0,5.89-2,15,15,0,0,0,4.9-5.94,23.56,23.56,0,0,0,2-7A25,25,0,0,0,219.73,314Z"/><path class="cls-49" d="M196.91,335.8a28.81,28.81,0,0,0-9,2.9,19.86,19.86,0,0,0-8.29,7.51l-2.29-1.16a1.09,1.09,0,0,1-.08.15l2.74,1.39a20,20,0,0,1,8.29-7.52,29,29,0,0,1,8.68-2.83C196.92,336.1,196.91,335.94,196.91,335.8Z"/><path class="cls-49" d="M219.73,314l-.32,0a25.16,25.16,0,0,1,0,6.77,23.59,23.59,0,0,1-2,7,15,15,0,0,1-4.9,5.95,11.37,11.37,0,0,1-5.89,2c.21,3.82-.17,9-.17,11.31-1.42,1.41-6.57,1.65-9,.35a.51.51,0,0,1,0,.13c2.16,1.57,7.85,1.39,9.35-.1,0-2.33.38-7.49.18-11.32a11.44,11.44,0,0,0,5.89-2,15,15,0,0,0,4.9-5.94,23.56,23.56,0,0,0,2-7A25,25,0,0,0,219.73,314Z"/><path class="cls-45" d="M180.05,380.1c-1.92-.7-2.46-1.72-3.79-1.53-1.39.92-2.78,6.09-2.35,8.84.65,2,2-1,3.14-2.63s1.93-1.7,1.93-1.7Z"/><path class="cls-22" d="M218.28,309.33l1.81-5.47a1,1,0,0,1,1.33.54l-2,5.42A.87.87,0,0,1,218.28,309.33Z"/><path class="cls-50" d="M202.8,328.53c2.31.31,3-2.24,2.9-3.45s-.42-4.75-2.36-5.54-4.55.23-4.32,2.9S201,328.3,202.8,328.53Z"/><path class="cls-51" d="M205.7,325.08c-.09-1.2-.42-4.75-2.36-5.54a3.69,3.69,0,0,0-2.27-.14,3.81,3.81,0,0,1,1.6.25c2,.79,2.28,4.34,2.37,5.54.07,1-.37,2.9-1.83,3.37C205.2,328.53,205.79,326.21,205.7,325.08Z"/><path class="cls-52" d="M204.87,320c-1.12,4.1-1.79,4.12-1.51,5.68s2.48.17,4.11.45,1.71,2,.94,3.55-3,1-3,1c-.38,2.16-3.86,2.78-4.83.63-2.4,1.49-3.72.24-4-.46s-.05-1.87.49-2.12c1.35-.62-.25-5.94.59-7.89a4.79,4.79,0,0,1,5.35-2.64C205.21,318.71,204.87,320,204.87,320Z"/><path class="cls-53" d="M207.47,326.11a3.23,3.23,0,0,0-.7,0c1.37.42,1.41,2,.69,3.47s-3,1-3,1a2.55,2.55,0,0,1-2.48,2,2.68,2.68,0,0,0,3.43-1.84s2.23.49,3-1S209.11,326.39,207.47,326.11Z"/><path class="cls-53" d="M203.91,319.87c-1.11,4.1-1.78,4.12-1.5,5.68.12.71.65.81,1.34.73a.84.84,0,0,1-.39-.62c-.28-1.56.39-1.58,1.51-5.68,0,0,.34-1.27-1.85-1.76a4.05,4.05,0,0,0-.92-.1C204.25,318.61,203.91,319.87,203.91,319.87Z"/><path class="cls-53" d="M199.63,331.22a4.15,4.15,0,0,1-1.87.69,2.91,2.91,0,0,0,2.16-.23A2.39,2.39,0,0,1,199.63,331.22Z"/><path class="cls-50" d="M177.38,344.86a7.47,7.47,0,0,0-2.68,6.26c.23,2.68,4.57-.56,5.35-4.74A3.54,3.54,0,0,0,177.38,344.86Z"/><path class="cls-51" d="M177.38,344.86l0,0a3.62,3.62,0,0,1,1.88,1.38c-.54,2.88-2.77,5.31-4.18,5.67,1.1.87,4.32-2,5-5.55A3.54,3.54,0,0,0,177.38,344.86Z"/><path class="cls-50" d="M217.38,314.3a2.06,2.06,0,0,0,2.34-.18c.6-3.48-.14-6-1.39-6C216.2,308.42,217.38,314.3,217.38,314.3Z"/><path class="cls-51" d="M218.33,308.14a1,1,0,0,0-.72.44c1.22,0,1.95,2.49,1.37,5.9a1.9,1.9,0,0,0,.74-.36C220.32,310.64,219.58,308.14,218.33,308.14Z"/><path class="cls-50" d="M219.4,307.79"/><path class="cls-54" d="M341.09,384.94a39.06,39.06,0,0,1-4.24,10.79c4.28-.69,11.5,3.55,11.5,3.55v1.41L333.79,400a1.55,1.55,0,0,1-1.4-1.57,39.94,39.94,0,0,1,3.16-14.54Z"/><path class="cls-55" d="M336.85,395.73a39.06,39.06,0,0,0,4.24-10.79l-5.54-1c-.06.15-.12.31-.19.46l4.73.88A39.12,39.12,0,0,1,335.85,396c4.28-.69,11.5,3.55,11.5,3.55v1.06l1,0v-1.41S341.13,395,336.85,395.73Z"/><path class="cls-56" d="M312.09,360l-2.44,4.9a.38.38,0,0,0,.6.42l2.8-4.62C313.22,360.13,312.48,359.73,312.09,360Z"/><path class="cls-26" d="M311.93,364.27c.61.62.67,1.06,0,2.07s-2.62.18-2.62.18a6.24,6.24,0,0,1,.13-3C309.88,362.77,311.72,364.06,311.93,364.27Z"/><path class="cls-57" d="M309.73,366.42a6.28,6.28,0,0,1,.13-3,.41.41,0,0,1,.15-.14.53.53,0,0,0-.55.25,6.24,6.24,0,0,0-.13,3,3.22,3.22,0,0,0,2.13.25A4,4,0,0,1,309.73,366.42Z"/><path class="cls-26" d="M329.89,380.65c-3.15,7.37-4.76,12.94-3.42,17.52a2.14,2.14,0,0,0,1.55,1.5A73.58,73.58,0,0,0,343.27,401v-1.89s-9.93-4.17-13.3-2.8c1.14-3.8,5.94-13.94,5.94-13.94Z"/><path class="cls-58" d="M330,396.31c1.14-3.8,5.94-13.94,5.94-13.94l-6-1.72c-.11.25-.21.5-.31.75l5.58,1.6s-4.8,10.14-5.94,13.94c3.37-1.38,13.3,2.8,13.3,2.8V401h.75v-1.89S333.34,394.94,330,396.31Z"/><path class="cls-59" d="M333.34,366.5c.14-3.27-7-3.18-9.58-1.68a1.17,1.17,0,0,0-.37.28h0v0a1.59,1.59,0,0,0-.34.5c-2.67,3.91-5.3,7.92-7.18,7.55s-2.78-.61-4-6.65h-2.52s1.6,9.15,4.89,10.22c2.62.85,6.88-.47,10-4.56,2.38,7.47,5.72,9.07,7,9.45,1.51.47,7.49-.07,8.69-2.7C341.71,374.86,333.2,369.76,333.34,366.5Z"/><path class="cls-60" d="M339.91,377.68c-1.2,2.62-7.17,3.17-8.69,2.7-1.25-.38-4.58-2-7-9.45-3.09,4.09-7.36,5.41-10,4.56s-4.06-6.43-4.63-9h-.31s1.6,9.15,4.89,10.22c2.62.85,6.88-.47,10-4.56,2.38,7.47,5.72,9.07,7,9.45,1.51.47,7.49-.07,8.69-2.7a3.06,3.06,0,0,0,.22-1.74A4,4,0,0,1,339.91,377.68Z"/><path class="cls-61" d="M339.35,375.25c-2-2.45-9.76,1.32-11.06,4.5,0,1.58-1.76,8.08-4.19,11.87a55.42,55.42,0,0,0,11.18,1.05c5.75-.11,7.33-1.83,7.33-1.83S341.57,378,339.35,375.25Z"/><path class="cls-62" d="M339.35,375.25a2.09,2.09,0,0,0-.83-.57c2,3.43,3,15.16,3,15.16s-1.58,1.72-7.32,1.83a55.93,55.93,0,0,1-9.63-.76l-.43.71a55.42,55.42,0,0,0,11.18,1.05c5.75-.11,7.33-1.83,7.33-1.83S341.57,378,339.35,375.25Z"/><path class="cls-26" d="M327.6,362.39c1-.95,1.41-3.7-.62-7.24s-6.61.84-6.32,2.64,1.69,5.95,3.24,6.15S327.6,362.39,327.6,362.39Z"/><path class="cls-63" d="M321.11,355.36a3.48,3.48,0,0,0-.46,4.12l1.56-.73s5.75,13.32,4.09,18,7.46,2.63,9.69.58-2.14-10.38-4.22-13.82-2.69-8.47-5.62-9.67C323.77,352.79,321.11,355.36,321.11,355.36Z"/><path class="cls-64" d="M326.92,375.84c1.67-4.65-4.08-18-4.08-18l-1.56.74a3.57,3.57,0,0,1-.12-3.3l-.05.05a3.48,3.48,0,0,0-.46,4.12l1.56-.73s5.75,13.32,4.09,18,7.46,2.63,9.69.58a1.7,1.7,0,0,0,.43-.71C333.91,378.56,325.3,380.36,326.92,375.84Z"/><path class="cls-65" d="M345,398.43c.59-1.72,1.73-1.35,2.93-.46s3.06,1.81,3.4,2.27-.19.69-1,.77-5.37-.09-5.68-.12S345,398.43,345,398.43Z"/><path class="cls-22" d="M341.94,401c.26-3.24,1.79-3.9,2.64-3.61a46,46,0,0,1,4.54,2.24c1.11.61.8,1.52-1.12,1.63A55.31,55.31,0,0,1,341.94,401Z"/><path class="cls-66" d="M349.12,399.64a46,46,0,0,0-4.54-2.24,1.45,1.45,0,0,0-1.43.39,1.17,1.17,0,0,1,.5,0,47.09,47.09,0,0,1,4.53,2.24c.63.34.78.78.48,1.11C350,400.93,350.09,400.17,349.12,399.64Z"/><circle class="cls-67" cx="325.75" cy="99.45" r="4.62"/></g><g id="DESIGNED_BY_FREEPIK.COM" data-name="DESIGNED BY FREEPIK.COM"><path class="cls-22" d="M353.12,387.75"/></g></g></svg>